<?xml version="1.0" encoding="utf-8"?>
<!-- Generator: Adobe Illustrator 15.1.0, SVG Export Plug-In . SVG Version: 6.00 Build 0)  -->
<!DOCTYPE svg PUBLIC "-//W3C//DTD SVG 1.1//EN" "http://www.w3.org/Graphics/SVG/1.1/DTD/svg11.dtd">
<svg version="1.1" id="Layer_1" xmlns="http://www.w3.org/2000/svg" xmlns:xlink="http://www.w3.org/1999/xlink" x="0px" y="0px"
	 width="512px" height="512px" viewBox="0 0 512 512" enable-background="new 0 0 512 512" xml:space="preserve">
<path fill="#FFFFFF" d="M476.201,335.381l-33.95-20.361l-154.477,92.69c-8.848,5.311-20.127,8.233-31.774,8.233
	c-11.642,0-22.927-2.923-31.774-8.233L69.743,315.02l-33.944,20.361c-11.051,6.638-11.051,17.393,0,24.021l200.18,120.113
	c5.528,3.313,12.775,4.976,20.021,4.976s14.492-1.662,20.016-4.976l200.186-120.113
	C487.258,352.773,487.258,342.019,476.201,335.381z"/>
<path fill="#FFFFFF" d="M476.201,243.984l-33.95-20.361l-154.477,92.69c-8.848,5.311-20.127,8.233-31.774,8.233
	c-11.642,0-22.927-2.923-31.774-8.233l-154.482-92.69l-33.944,20.361c-11.051,6.638-11.051,17.394,0,24.021l200.18,120.113
	c5.528,3.313,12.775,4.977,20.021,4.977s14.492-1.663,20.016-4.977l200.186-120.113
	C487.258,261.378,487.258,250.623,476.201,243.984z"/>
<path fill="#FFFFFF" d="M476.201,152.588L276.016,32.485c-5.523-3.313-12.77-4.976-20.016-4.976s-14.493,1.663-20.021,4.976
	L35.799,152.588c-11.051,6.638-11.051,17.394,0,24.021l200.18,120.114c5.528,3.313,12.775,4.976,20.021,4.976
	s14.492-1.662,20.016-4.976l200.186-120.114C487.258,169.981,487.258,159.226,476.201,152.588z"/>
<path fill="#F67773" d="M476.201,359.401L276.016,479.515c-5.523,3.313-12.77,4.976-20.016,4.976s-14.493-1.662-20.021-4.976
	L35.799,359.401c-11.051-6.628-11.051-17.383,0-24.021l33.944-20.361l154.482,92.69c8.847,5.311,20.132,8.233,31.774,8.233
	c11.647,0,22.927-2.923,31.774-8.233l154.477-92.69l33.95,20.361C487.258,342.019,487.258,352.773,476.201,359.401z"/>
<path fill="#309553" d="M476.201,268.005L276.016,388.118c-5.523,3.313-12.77,4.977-20.016,4.977s-14.493-1.663-20.021-4.977
	L35.799,268.005c-11.051-6.627-11.051-17.382,0-24.021l33.944-20.361l154.482,92.69c8.847,5.311,20.132,8.233,31.774,8.233
	c11.647,0,22.927-2.923,31.774-8.233l154.477-92.69l33.95,20.361C487.258,250.623,487.258,261.378,476.201,268.005z"/>
<path fill="#FFE52D" d="M476.201,176.608L276.016,296.723c-5.523,3.313-12.77,4.976-20.016,4.976s-14.493-1.662-20.021-4.976
	L35.799,176.608c-11.051-6.627-11.051-17.382,0-24.021l200.18-120.103c5.528-3.313,12.775-4.976,20.021-4.976
	s14.492,1.663,20.016,4.976l200.186,120.103C487.258,159.226,487.258,169.981,476.201,176.608z"/>
</svg>
